<svg width="8" height="8" viewBox="0 0 8 8" fill="none" xmlns="http://www.w3.org/2000/svg">
<path d="M0.940358 3.57643C0.990444 3.75486 1.19705 3.95208 1.38487 3.99903C1.71356 4.08042 1.78869 4.03347 2.64641 3.17887L3.37579 2.45263V4.83171C3.37579 7.06367 3.38205 7.21706 3.43527 7.33601C3.61996 7.74922 4.1396 7.84313 4.44638 7.51757C4.6342 7.32036 4.62794 7.4174 4.62794 4.82545V2.45263L5.35418 3.17887C5.75487 3.57643 6.12426 3.9239 6.17747 3.94895C6.43729 4.07729 6.69398 4.03347 6.89746 3.82999C7.10719 3.62339 7.14476 3.36357 7.00702 3.09435C6.97572 3.03488 6.35903 2.39941 5.63905 1.67942C4.27108 0.317712 4.26168 0.308321 4.00186 0.308321C3.74204 0.308321 3.73265 0.317712 2.36468 1.67942C1.64469 2.39941 1.02801 3.03488 0.996705 3.10061C0.918445 3.24774 0.896533 3.42304 0.940358 3.57643Z" fill="#3FB97B"/>
</svg>
