<svg width="30" height="25" viewBox="0 0 30 25" fill="none" xmlns="http://www.w3.org/2000/svg">
<path d="M22.5942 10.4816C22.9737 11.1558 23.256 11.8582 23.4412 12.5887C23.6263 13.3192 23.7235 14.073 23.7327 14.8503V16.2972L14.8466 20.8065L5.96056 16.2972C5.96056 15.7353 5.96519 15.2109 5.97444 14.7239C5.9837 14.2369 6.02535 13.764 6.0994 13.3051C6.17346 12.8462 6.28453 12.3873 6.43263 11.9284C6.58073 11.4696 6.80289 10.9873 7.09909 10.4816L4.18334 9.00656V17.2525C4.45178 17.3461 4.69244 17.4772 4.90534 17.6458C5.11823 17.8144 5.30799 18.011 5.4746 18.2358C5.64122 18.4606 5.76155 18.7041 5.8356 18.9663C5.90965 19.2285 5.9513 19.5048 5.96056 19.7951V24.2903H0.628906V19.7951C0.628906 19.5141 0.67056 19.2425 0.753867 18.9803C0.837174 18.7181 0.957506 18.4699 1.11486 18.2358C1.27222 18.0017 1.45735 17.805 1.67024 17.6458C1.88314 17.4866 2.12843 17.3555 2.40612 17.2525V8.10751L0.628906 7.20847L14.8466 0.0161133L29.0644 7.20847L22.5942 10.4816ZM4.18334 19.7951C4.18334 19.5516 4.09541 19.3409 3.91954 19.1629C3.74367 18.985 3.5354 18.896 3.29473 18.896C3.05407 18.896 2.8458 18.985 2.66993 19.1629C2.49406 19.3409 2.40612 19.5516 2.40612 19.7951V22.4922H4.18334V19.7951ZM4.59988 7.20847L14.8466 12.392L25.0934 7.20847L14.8466 2.02492L4.59988 7.20847ZM21.9555 15.1875C21.9555 14.4664 21.8861 13.7968 21.7473 13.1787C21.6084 12.5606 21.3631 11.9284 21.0114 11.2823L14.8466 14.4008L8.68192 11.2823C8.37646 11.8254 8.14506 12.3967 7.9877 12.9961C7.83034 13.5954 7.74703 14.2135 7.73778 14.8503V15.1875L14.8466 18.7837L21.9555 15.1875Z" fill="white"/>
</svg>
