<svg width="25" height="25" viewBox="0 0 25 25" fill="none" xmlns="http://www.w3.org/2000/svg">
<path d="M4.2313 10.7773C4.2313 10.3701 4.3115 9.96682 4.46734 9.59059C4.62318 9.21437 4.85159 8.87252 5.13955 8.58457C5.4275 8.29662 5.76934 8.0682 6.14557 7.91237C6.5218 7.75653 6.92503 7.67632 7.33226 7.67632C7.73948 7.67632 8.14272 7.75653 8.51894 7.91237C8.89517 8.0682 9.23702 8.29662 9.52497 8.58457C9.81292 8.87252 10.0413 9.21437 10.1972 9.59059C10.353 9.96682 10.4332 10.3701 10.4332 10.7773C10.4332 11.5997 10.1065 12.3884 9.52497 12.97C8.94342 13.5515 8.15468 13.8782 7.33226 13.8782C6.50983 13.8782 5.72109 13.5515 5.13955 12.97C4.558 12.3884 4.2313 11.5997 4.2313 10.7773ZM7.33226 9.74363C7.05811 9.74363 6.7952 9.85253 6.60135 10.0464C6.40751 10.2402 6.2986 10.5031 6.2986 10.7773C6.2986 11.0514 6.40751 11.3143 6.60135 11.5082C6.7952 11.702 7.05811 11.8109 7.33226 11.8109C7.6064 11.8109 7.86931 11.702 8.06316 11.5082C8.25701 11.3143 8.36591 11.0514 8.36591 10.7773C8.36591 10.5031 8.25701 10.2402 8.06316 10.0464C7.86931 9.85253 7.6064 9.74363 7.33226 9.74363ZM7.33226 15.2564C6.50983 15.2564 5.72109 15.5832 5.13955 16.1647C4.558 16.7462 4.2313 17.535 4.2313 18.3574C4.2313 19.1798 4.558 19.9686 5.13955 20.5501C5.72109 21.1317 6.50983 21.4584 7.33226 21.4584C8.15468 21.4584 8.94342 21.1317 9.52497 20.5501C10.1065 19.9686 10.4332 19.1798 10.4332 18.3574C10.4332 17.535 10.1065 16.7462 9.52497 16.1647C8.94342 15.5832 8.15468 15.2564 7.33226 15.2564ZM6.2986 18.3574C6.2986 18.0833 6.40751 17.8204 6.60135 17.6265C6.7952 17.4327 7.05811 17.3238 7.33226 17.3238C7.6064 17.3238 7.86931 17.4327 8.06316 17.6265C8.25701 17.8204 8.36591 18.0833 8.36591 18.3574C8.36591 18.6315 8.25701 18.8945 8.06316 19.0883C7.86931 19.2822 7.6064 19.3911 7.33226 19.3911C7.05811 19.3911 6.7952 19.2822 6.60135 19.0883C6.40751 18.8945 6.2986 18.6315 6.2986 18.3574ZM12.5005 10.7773C12.5005 10.5031 12.6094 10.2402 12.8033 10.0464C12.9971 9.85253 13.26 9.74363 13.5342 9.74363H19.7361C20.0102 9.74363 20.2732 9.85253 20.467 10.0464C20.6609 10.2402 20.7698 10.5031 20.7698 10.7773C20.7698 11.0514 20.6609 11.3143 20.467 11.5082C20.2732 11.702 20.0102 11.8109 19.7361 11.8109H13.5342C13.26 11.8109 12.9971 11.702 12.8033 11.5082C12.6094 11.3143 12.5005 11.0514 12.5005 10.7773ZM13.5342 17.3238C13.26 17.3238 12.9971 17.4327 12.8033 17.6265C12.6094 17.8204 12.5005 18.0833 12.5005 18.3574C12.5005 18.6315 12.6094 18.8945 12.8033 19.0883C12.9971 19.2822 13.26 19.3911 13.5342 19.3911H19.7361C20.0102 19.3911 20.2732 19.2822 20.467 19.0883C20.6609 18.8945 20.7698 18.6315 20.7698 18.3574C20.7698 18.0833 20.6609 17.8204 20.467 17.6265C20.2732 17.4327 20.0102 17.3238 19.7361 17.3238H13.5342ZM4.2313 5.26446C4.2313 4.99032 4.3402 4.7274 4.53404 4.53356C4.72789 4.33971 4.99081 4.23081 5.26495 4.23081H19.7361C20.0102 4.23081 20.2732 4.33971 20.467 4.53356C20.6609 4.7274 20.7698 4.99032 20.7698 5.26446C20.7698 5.5386 20.6609 5.80152 20.467 5.99536C20.2732 6.18921 20.0102 6.29811 19.7361 6.29811H5.26495C4.99081 6.29811 4.72789 6.18921 4.53404 5.99536C4.3402 5.80152 4.2313 5.5386 4.2313 5.26446ZM4.57585 0.0961914C3.3879 0.0961914 2.2486 0.568102 1.4086 1.40811C0.56859 2.24812 0.0966797 3.38741 0.0966797 4.57536V20.4247C0.0966797 21.6127 0.56859 22.752 1.4086 23.592C2.2486 24.432 3.3879 24.9039 4.57585 24.9039H20.4252C21.6132 24.9039 22.7524 24.432 23.5925 23.592C24.4325 22.752 24.9044 21.6127 24.9044 20.4247V4.57536C24.9044 3.38741 24.4325 2.24812 23.5925 1.40811C22.7524 0.568102 21.6132 0.0961914 20.4252 0.0961914H4.57585ZM2.16399 4.57536C2.16399 3.24401 3.2445 2.1635 4.57585 2.1635H20.4252C21.7565 2.1635 22.8371 3.24401 22.8371 4.57536V20.4247C22.8371 21.0644 22.583 21.6778 22.1306 22.1302C21.6783 22.5825 21.0649 22.8366 20.4252 22.8366H4.57585C3.93618 22.8366 3.32272 22.5825 2.8704 22.1302C2.41809 21.6778 2.16399 21.0644 2.16399 20.4247V4.57536Z" fill="white"/>
</svg>
