<svg width="32" height="32" viewBox="0 0 32 32" fill="none" xmlns="http://www.w3.org/2000/svg">
<g clip-path="url(#clip0_8_1730)">
<mask id="mask0_8_1730" style="mask-type:luminance" maskUnits="userSpaceOnUse" x="0" y="0" width="32" height="32">
<path d="M0 0H32V32H0V0Z" fill="white"/>
</mask>
<g mask="url(#mask0_8_1730)">
<path fill-rule="evenodd" clip-rule="evenodd" d="M6.6875 3.5C6.6875 2.77513 7.27513 2.1875 8 2.1875H9.25C9.97487 2.1875 10.5625 2.77513 10.5625 3.5V4.6875H21.4375V3.5C21.4375 2.77513 22.0251 2.1875 22.75 2.1875H24C24.7249 2.1875 25.3125 2.77513 25.3125 3.5V4.6875H26.625C28.3854 4.6875 29.8125 6.11459 29.8125 7.875V26.625C29.8125 28.3854 28.3854 29.8125 26.625 29.8125H5.375C3.61459 29.8125 2.1875 28.3854 2.1875 26.625V7.875C2.1875 6.11459 3.61459 4.6875 5.375 4.6875H6.6875V3.5ZM25.3125 6.0625V7.25C25.3125 7.97487 24.7249 8.5625 24 8.5625H22.75C22.0251 8.5625 21.4375 7.97487 21.4375 7.25V6.0625H10.5625V7.25C10.5625 7.97487 9.97487 8.5625 9.25 8.5625H8C7.27513 8.5625 6.6875 7.97487 6.6875 7.25V6.0625H5.375C4.37398 6.0625 3.5625 6.874 3.5625 7.875V9.1875H28.4375V7.875C28.4375 6.874 27.626 6.0625 26.625 6.0625H25.3125ZM8.0625 3.5625V7.1875H9.1875V3.5625H8.0625ZM3.5625 10.5625V26.625C3.5625 27.626 4.37398 28.4375 5.375 28.4375H26.625C27.626 28.4375 28.4375 27.626 28.4375 26.625V10.5625H3.5625ZM22.8125 7.1875V3.5625H23.9375V7.1875H22.8125Z" fill="#11B360"/>
<path fill-rule="evenodd" clip-rule="evenodd" d="M8.1875 20.1875H9.9375C10.904 20.1875 11.6875 20.971 11.6875 21.9375V23.6875C11.6875 24.654 10.904 25.4375 9.9375 25.4375H8.1875C7.221 25.4375 6.4375 24.654 6.4375 23.6875V21.9375C6.4375 20.971 7.221 20.1875 8.1875 20.1875ZM8.1875 21.5625C7.98038 21.5625 7.8125 21.7304 7.8125 21.9375V23.6875C7.8125 23.8946 7.98038 24.0625 8.1875 24.0625H9.9375C10.1446 24.0625 10.3125 23.8946 10.3125 23.6875V21.9375C10.3125 21.7304 10.1446 21.5625 9.9375 21.5625H8.1875Z" fill="#11B360"/>
<path fill-rule="evenodd" clip-rule="evenodd" d="M15.3125 20.1875H17.0625C18.029 20.1875 18.8125 20.971 18.8125 21.9375V23.6875C18.8125 24.654 18.029 25.4375 17.0625 25.4375H15.3125C14.346 25.4375 13.5625 24.654 13.5625 23.6875V21.9375C13.5625 20.971 14.346 20.1875 15.3125 20.1875ZM15.3125 21.5625C15.1054 21.5625 14.9375 21.7304 14.9375 21.9375V23.6875C14.9375 23.8946 15.1054 24.0625 15.3125 24.0625H17.0625C17.2696 24.0625 17.4375 23.8946 17.4375 23.6875V21.9375C17.4375 21.7304 17.2696 21.5625 17.0625 21.5625H15.3125Z" fill="#11B360"/>
<path fill-rule="evenodd" clip-rule="evenodd" d="M22.4375 20.1875H24.1875C25.154 20.1875 25.9375 20.971 25.9375 21.9375V23.6875C25.9375 24.654 25.154 25.4375 24.1875 25.4375H22.4375C21.471 25.4375 20.6875 24.654 20.6875 23.6875V21.9375C20.6875 20.971 21.471 20.1875 22.4375 20.1875ZM22.4375 21.5625C22.2304 21.5625 22.0625 21.7304 22.0625 21.9375V23.6875C22.0625 23.8946 22.2304 24.0625 22.4375 24.0625H24.1875C24.3946 24.0625 24.5625 23.8946 24.5625 23.6875V21.9375C24.5625 21.7304 24.3946 21.5625 24.1875 21.5625H22.4375Z" fill="#11B360"/>
<path fill-rule="evenodd" clip-rule="evenodd" d="M8.1875 13.0625H9.9375C10.904 13.0625 11.6875 13.846 11.6875 14.8125V16.5625C11.6875 17.529 10.904 18.3125 9.9375 18.3125H8.1875C7.221 18.3125 6.4375 17.529 6.4375 16.5625V14.8125C6.4375 13.846 7.221 13.0625 8.1875 13.0625ZM8.1875 14.4375C7.98038 14.4375 7.8125 14.6054 7.8125 14.8125V16.5625C7.8125 16.7696 7.98038 16.9375 8.1875 16.9375H9.9375C10.1446 16.9375 10.3125 16.7696 10.3125 16.5625V14.8125C10.3125 14.6054 10.1446 14.4375 9.9375 14.4375H8.1875Z" fill="#11B360"/>
<path fill-rule="evenodd" clip-rule="evenodd" d="M15.3125 13.0625H17.0625C18.029 13.0625 18.8125 13.846 18.8125 14.8125V16.5625C18.8125 17.529 18.029 18.3125 17.0625 18.3125H15.3125C14.346 18.3125 13.5625 17.529 13.5625 16.5625V14.8125C13.5625 13.846 14.346 13.0625 15.3125 13.0625ZM15.3125 14.4375C15.1054 14.4375 14.9375 14.6054 14.9375 14.8125V16.5625C14.9375 16.7696 15.1054 16.9375 15.3125 16.9375H17.0625C17.2696 16.9375 17.4375 16.7696 17.4375 16.5625V14.8125C17.4375 14.6054 17.2696 14.4375 17.0625 14.4375H15.3125Z" fill="#11B360"/>
<path d="M25.8417 14.1382C26.0369 13.943 26.0369 13.6264 25.8417 13.4311L25.5765 13.166C25.3812 12.9707 25.0647 12.9707 24.8694 13.166L23.3163 14.719L21.7632 13.166C21.568 12.9707 21.2514 12.9707 21.0561 13.166L20.791 13.4311C20.5957 13.6264 20.5957 13.943 20.791 14.1382L22.344 15.6913L20.791 17.2444C20.5957 17.4397 20.5957 17.7562 20.791 17.9515L21.0562 18.2167C21.2514 18.4119 21.568 18.4119 21.7632 18.2167L23.3163 16.6636L24.8694 18.2167C25.0647 18.4119 25.3812 18.4119 25.5765 18.2167L25.8417 17.9515C26.0369 17.7562 26.0369 17.4397 25.8417 17.2444L24.2886 15.6913L25.8417 14.1382Z" fill="#11B360"/>
</g>
</g>
<defs>
<clipPath id="clip0_8_1730">
<rect width="32" height="32" fill="white"/>
</clipPath>
</defs>
</svg>
