<svg width="21" height="24" viewBox="0 0 21 24" fill="none" xmlns="http://www.w3.org/2000/svg">
<path fill-rule="evenodd" clip-rule="evenodd" d="M5.6717 2.4C5.6717 1.76348 5.9196 1.15303 6.36086 0.702944C6.80213 0.252856 7.40061 0 8.02464 0H14.5964C15.2204 0.00013593 15.8188 0.253081 16.2599 0.7032L20.2764 4.8C20.7177 5.24998 20.9657 5.86033 20.9658 6.4968V16.8C20.9658 17.4365 20.7179 18.047 20.2767 18.4971C19.8354 18.9471 19.2369 19.2 18.6129 19.2H16.2599V21.6C16.2599 22.2365 16.012 22.847 15.5708 23.2971C15.1295 23.7471 14.531 24 13.907 24H3.31876C2.69472 24 2.09624 23.7471 1.65498 23.2971C1.21372 22.847 0.96582 22.2365 0.96582 21.6V7.2C0.96582 6.56348 1.21372 5.95303 1.65498 5.50294C2.09624 5.05286 2.69472 4.8 3.31876 4.8H5.6717V2.4ZM18.6129 16.8H8.02464V2.4H12.7305V6.6C12.7305 7.07739 12.9164 7.53523 13.2474 7.87279C13.5783 8.21036 14.0272 8.4 14.4952 8.4H18.6129V16.8ZM18.1258 6H15.0835V2.8968L18.1258 6ZM5.6717 16.8V7.2H3.31876V21.6H13.907V19.2H8.02464C7.40061 19.2 6.80213 18.9471 6.36086 18.4971C5.9196 18.047 5.6717 17.4365 5.6717 16.8Z" fill="white"/>
</svg>
