<svg width="15" height="18" viewBox="0 0 15 18" fill="none" xmlns="http://www.w3.org/2000/svg">
<path d="M1.40167 0.0643311C0.749549 0.245132 0.240203 0.787537 0.0665623 1.47458C-0.0221874 1.82011 -0.0221874 16.1797 0.0665623 16.5253C0.240203 17.2204 0.753408 17.7587 1.4171 17.9395C1.61775 17.9918 2.35862 17.9998 7.41735 17.9998C13.7687 17.9998 13.3945 18.0159 13.8652 17.7547C14.1353 17.602 14.471 17.2485 14.6099 16.9632C14.8337 16.5012 14.826 16.7623 14.826 11.041V5.78568H13.1745C11.3957 5.78568 11.2915 5.77363 10.894 5.5647C10.6201 5.42408 10.2651 5.06248 10.1262 4.78927C9.89077 4.33124 9.88691 4.28704 9.88691 2.04109V4.57764e-05L5.7504 0.00406456C2.26215 0.00406456 1.57917 0.0161171 1.40167 0.0643311Z" fill="#9B9B9B"/>
<path d="M11.1216 2.20175C11.1216 3.612 11.1332 4.00575 11.1756 4.11021C11.2412 4.27896 11.438 4.45172 11.5962 4.47985C11.6657 4.4919 12.3409 4.49592 13.0972 4.4919L14.4786 4.47985L12.8927 2.5513C12.0207 1.4906 11.2644 0.57856 11.2142 0.522311L11.1216 0.421866V2.20175Z" fill="#9B9B9B"/>
</svg>
