<svg width="26" height="18" viewBox="0 0 26 18" fill="none" xmlns="http://www.w3.org/2000/svg">
<path d="M22.1458 7.64C21.5996 3.3375 17.9146 0 13.4658 0C10.0208 0 7.02832 2.01375 5.66207 5.1875C2.97707 5.99 0.96582 8.525 0.96582 11.25C0.96582 14.6962 3.76957 17.5 7.21582 17.5H8.46582V15H7.21582C5.14832 15 3.46582 13.3175 3.46582 11.25C3.46582 9.495 4.96457 7.80375 6.80707 7.48L7.53332 7.3525L7.77332 6.655C8.65207 4.09125 10.8333 2.5 13.4658 2.5C16.9121 2.5 19.7158 5.30375 19.7158 8.75V10H20.9658C22.3446 10 23.4658 11.1212 23.4658 12.5C23.4658 13.8787 22.3446 15 20.9658 15H18.4658V17.5H20.9658C23.7233 17.5 25.9658 15.2575 25.9658 12.5C25.9643 11.3794 25.5872 10.2916 24.8947 9.41062C24.2022 8.52959 23.2344 7.90617 22.1458 7.64Z" fill="white"/>
<path d="M14.7158 8V3H12.2158V8H8.46582L13.4658 14.25L18.4658 8H14.7158Z" fill="white"/>
</svg>
