<svg width="27" height="27" viewBox="0 0 27 27" fill="none" xmlns="http://www.w3.org/2000/svg">
<path d="M4.62173 0.53123C4.54416 0.553393 4.4001 0.61988 4.29483 0.669746L4.10645 0.769478L4.57186 1.00219C5.17579 1.29584 5.50823 1.54517 5.99027 2.04937C6.54987 2.64222 6.90447 3.29047 7.12056 4.11049C7.22029 4.48171 7.22583 4.97483 7.22583 14.948C7.22583 23.9405 7.23691 25.4309 7.3034 25.6636C7.51949 26.3728 8.35612 26.7108 8.98776 26.3507C9.08749 26.2952 9.92967 25.5971 10.855 24.8048C11.7802 24.0125 12.5504 23.3642 12.567 23.3642C12.5892 23.3642 13.3815 24.0291 14.3345 24.8491C15.2819 25.6636 16.1518 26.3673 16.2571 26.4116C16.523 26.528 16.9608 26.5113 17.2101 26.3784C17.3209 26.323 18.1686 25.6304 19.0884 24.8381C20.0081 24.0513 20.7949 23.403 20.8337 23.3975C20.8724 23.3975 21.6426 24.0291 22.5513 24.8048C23.4544 25.5805 24.2855 26.2731 24.3908 26.3396C25.0446 26.744 25.9532 26.3451 26.1194 25.575C26.1638 25.3533 26.1749 22.644 26.1638 14.9148L26.1471 4.55374L26.0197 4.09941C25.5543 2.3541 24.2966 1.10192 22.5568 0.636502L22.1025 0.514608L13.4314 0.503527C8.66086 0.492445 4.69929 0.509067 4.62173 0.53123ZM20.8724 5.41254C20.9888 5.49011 21.1495 5.65079 21.2326 5.76714C21.3656 5.96107 21.3822 6.03864 21.3822 6.40986C21.3822 6.78108 21.3656 6.85865 21.2326 7.05257C21.1495 7.16893 20.9888 7.32961 20.8724 7.40718L20.6674 7.54569H16.7003H12.7332L12.5282 7.40718C12.4119 7.32961 12.2512 7.16893 12.1681 7.05257C12.0351 6.85865 12.0185 6.78108 12.0185 6.40432C12.0185 6.01647 12.0351 5.95553 12.1847 5.73944C12.2789 5.61201 12.4617 5.44579 12.5947 5.37376L12.844 5.24632L16.7557 5.2574L20.6674 5.27403L20.8724 5.41254ZM20.7173 10.0611C21.5927 10.4601 21.6426 11.6956 20.8004 12.1721L20.5511 12.3106H16.7003C12.8662 12.3106 12.8496 12.3106 12.628 12.1888C12.2013 11.9616 11.9908 11.607 11.9908 11.1194C11.9908 10.7981 12.1182 10.5044 12.362 10.2772C12.7055 9.95033 12.5615 9.96141 16.7003 9.96141C20.2519 9.95587 20.5123 9.96696 20.7173 10.0611ZM20.7727 14.815C21.1938 15.0366 21.4099 15.3968 21.4099 15.8567C21.4099 16.3276 21.1439 16.7432 20.7173 16.9426C20.5068 17.0368 20.2741 17.0479 16.7114 17.0479C13.4147 17.0479 12.905 17.0368 12.7222 16.9593C12.2844 16.7764 11.9908 16.3498 11.9908 15.8844C11.9908 15.3026 12.3011 14.8926 12.8773 14.7153C12.9549 14.6931 14.7112 14.6765 16.7835 14.682C20.5234 14.6931 20.5511 14.6931 20.7727 14.815Z" fill="white"/>
<path d="M1.75141 2.74254C0.942475 3.03065 0.349626 3.71769 0.188947 4.55433C0.144622 4.79258 0.133541 6.16666 0.144622 9.34699C0.161244 13.7906 0.161244 13.8072 0.283138 14.0288C0.432736 14.3059 0.604496 14.4721 0.864906 14.5829C1.03667 14.6494 1.38573 14.666 2.98697 14.666H4.8985V9.73484C4.8985 6.29964 4.88188 4.72055 4.83755 4.51555C4.68241 3.8008 4.20038 3.18579 3.52996 2.85335C3.19752 2.69267 3.10333 2.67051 2.60467 2.65389C2.16696 2.64281 1.97858 2.66497 1.75141 2.74254Z" fill="white"/>
</svg>
