<svg width="32" height="32" viewBox="0 0 32 32" fill="none" xmlns="http://www.w3.org/2000/svg">
<path d="M20.1397 6.1858H18.0407V4.08674C18.0407 3.84512 17.8448 3.64924 17.6032 3.64924H14.4006C14.1589 3.64924 13.9631 3.84512 13.9631 4.08674V6.18574H11.8641C11.6224 6.18574 11.4266 6.38162 11.4266 6.62324V9.82593C11.4266 10.0676 11.6224 10.2634 11.8641 10.2634H13.9631V12.3624C13.9631 12.6041 14.1589 12.7999 14.4006 12.7999H17.6032C17.8448 12.7999 18.0407 12.6041 18.0407 12.3624V10.2634H20.1397C20.3814 10.2634 20.5772 10.0676 20.5772 9.82593V6.62324C20.5772 6.38168 20.3814 6.1858 20.1397 6.1858ZM19.7022 9.38843H17.6032C17.3616 9.38843 17.1657 9.5843 17.1657 9.82593V11.9249H14.8381V9.82593C14.8381 9.5843 14.6422 9.38843 14.4006 9.38843H12.3016V7.06074H14.4006C14.6422 7.06074 14.8381 6.86487 14.8381 6.62324V4.52424H17.1657V6.62324C17.1657 6.86487 17.3616 7.06074 17.6032 7.06074H19.7022V9.38843ZM28.1254 7.40018C27.6723 6.94705 27.0678 6.69749 26.4234 6.69749C25.7789 6.69749 25.1744 6.94705 24.7213 7.40018L23.6623 8.45918C23.6647 8.38099 23.6663 8.3028 23.6663 8.22462C23.6662 3.99849 20.228 0.560303 16.0019 0.560303C11.7758 0.560303 8.33756 3.99849 8.33756 8.22462C8.33756 12.4507 11.7758 15.8889 16.0019 15.8889C16.0801 15.8889 16.1583 15.8873 16.2364 15.8849L12.0755 20.0459C11.9046 20.2167 11.9046 20.4937 12.0755 20.6646L12.3414 20.9304L3.30394 29.9679C3.13306 30.1387 3.13306 30.4157 3.30394 30.5866C3.85712 31.1397 4.86512 31.4399 5.94537 31.4399C7.17656 31.4397 8.50144 31.0497 9.35162 30.1994L12.3817 27.1694C12.5396 27.0117 12.5451 26.8635 12.5813 25.8996C12.5911 25.6382 12.6019 25.3502 12.6156 25.1636L14.5951 23.1842L14.861 23.4501C14.943 23.5321 15.0543 23.5782 15.1703 23.5782C15.2863 23.5782 15.3976 23.5321 15.4796 23.4501L28.1253 10.8044C28.5784 10.3512 28.8279 9.7468 28.8279 9.10224C28.8279 8.45768 28.5785 7.85324 28.1254 7.40018ZM16.0019 15.0139C12.2583 15.0139 9.21256 11.9683 9.21256 8.22462C9.21256 4.48093 12.2583 1.4353 16.0019 1.4353C19.7455 1.4353 22.7912 4.48093 22.7912 8.22462C22.7912 8.63262 22.7545 9.0403 22.6827 9.43874L17.2161 14.9054C16.8177 14.9772 16.4099 15.0139 16.0019 15.0139ZM11.8864 24.6555C11.8191 24.7228 11.7756 24.8102 11.7625 24.9045C11.7359 25.0957 11.7219 25.4702 11.7069 25.8667C11.6976 26.1164 11.6843 26.4707 11.669 26.6447L8.73294 29.5808C7.59894 30.7147 5.35038 30.7666 4.28638 30.2227L12.9601 21.5491L13.9764 22.5654L11.8864 24.6555ZM15.1703 22.522L13.0036 20.3552L14.0343 19.3246L16.201 21.4913L15.1703 22.522ZM27.5067 10.1857L16.8197 20.8726L14.653 18.7059L25.3399 8.01887C25.6277 7.73105 26.0126 7.57249 26.4233 7.57249C26.8341 7.57249 27.2189 7.73105 27.5067 8.01887C27.7945 8.30668 27.9531 8.69143 27.9531 9.10224C27.9531 9.51305 27.7945 9.8978 27.5067 10.1857ZM26.6615 8.86405C26.8324 9.03493 26.8324 9.31193 26.6615 9.48274L22.2698 13.8745C22.1844 13.9599 22.0724 14.0026 21.9604 14.0026C21.8485 14.0026 21.7365 13.9599 21.6511 13.8745C21.4802 13.7037 21.4802 13.4266 21.6511 13.2558L26.0429 8.86405C26.2136 8.69318 26.4907 8.69318 26.6615 8.86405Z" fill="#11B360"/>
</svg>
