<svg width="32" height="32" viewBox="0 0 32 32" fill="none" xmlns="http://www.w3.org/2000/svg">
<g clip-path="url(#clip0_1_778)">
<path d="M4.59939 22.2264C4.56931 22.2264 4.5386 22.2245 4.50724 22.22C3.04488 22.0088 1.64205 21.5499 0.339046 20.8555C0.0273752 20.6891 -0.0910209 20.3013 0.0753739 19.989C0.242409 19.678 0.628317 19.5596 0.941907 19.7253C2.11307 20.3506 3.37447 20.7627 4.68963 20.9522C5.0397 21.0027 5.28225 21.3272 5.23233 21.6773C5.18626 21.9966 4.91234 22.2264 4.59939 22.2264Z" fill="#11B360"/>
<path d="M27.4012 22.2265C27.0882 22.2265 26.8143 21.9967 26.7682 21.678C26.7183 21.3279 26.9609 21.0035 27.3109 20.9529C28.6267 20.7635 29.8875 20.3513 31.0587 19.7261C31.3729 19.5603 31.7582 19.6787 31.9252 19.9897C32.0916 20.3014 31.9732 20.6899 31.6615 20.8563C30.3585 21.5506 28.9557 22.0095 27.4933 22.2207C27.462 22.2245 27.4313 22.2265 27.4012 22.2265Z" fill="#11B360"/>
<path d="M20.7061 16.4813C20.5857 16.4813 20.4648 16.4474 20.3573 16.3776C20.061 16.1843 19.9771 15.7882 20.1704 15.4919C21.0772 14.1012 22.6094 13.2705 24.2695 13.2705C24.6234 13.2705 24.9095 13.5566 24.9095 13.9105C24.9095 14.2644 24.6234 14.5505 24.2695 14.5505C23.0433 14.5505 21.9118 15.1636 21.243 16.1907C21.1208 16.3789 20.916 16.4813 20.7061 16.4813Z" fill="#11B360"/>
<path d="M25.6887 14.5505C23.42 14.5505 21.5039 12.6344 21.5039 10.3663C21.5039 8.09823 23.42 6.18213 25.6887 6.18213C27.9568 6.18213 29.8729 8.09823 29.8729 10.3663C29.8729 12.6344 27.9568 14.5505 25.6887 14.5505ZM25.6887 7.46209C24.1144 7.46209 22.7839 8.79197 22.7839 10.3663C22.7839 11.9406 24.1144 13.2705 25.6887 13.2705C27.2631 13.2705 28.593 11.9406 28.593 10.3663C28.593 8.79197 27.2631 7.46209 25.6887 7.46209Z" fill="#11B360"/>
<path d="M31.3581 18.8043C31.0042 18.8043 30.7181 18.5182 30.7181 18.1643C30.7181 16.172 29.097 14.551 27.1048 14.551C26.7509 14.551 26.4648 14.2649 26.4648 13.911C26.4648 13.5571 26.7509 13.271 27.1048 13.271C29.8029 13.271 31.9981 15.4668 31.9981 18.1643C31.9981 18.5176 31.712 18.8043 31.3581 18.8043Z" fill="#11B360"/>
<path d="M27.1046 14.5505H24.2689C23.915 14.5505 23.6289 14.2644 23.6289 13.9105C23.6289 13.5566 23.915 13.2705 24.2689 13.2705H27.1046C27.4585 13.2705 27.7446 13.5566 27.7446 13.9105C27.7446 14.2644 27.4579 14.5505 27.1046 14.5505Z" fill="#11B360"/>
<path d="M31.3588 20.931C31.0049 20.931 30.7188 20.645 30.7188 20.291V18.1644C30.7188 17.8105 31.0049 17.5244 31.3588 17.5244C31.7127 17.5244 31.9986 17.8105 31.9986 18.1644V20.291C31.9986 20.645 31.7127 20.931 31.3588 20.931Z" fill="#11B360"/>
<path d="M8.43686 21.4032C8.08295 21.4032 7.79688 21.1172 7.79688 20.7633C7.79688 17.283 10.6282 14.4524 14.1078 14.4524C14.4617 14.4524 14.7477 14.7385 14.7477 15.0924C14.7477 15.4463 14.4617 15.7324 14.1078 15.7324C11.3334 15.7324 9.07683 17.9889 9.07683 20.7633C9.07683 21.1172 8.79013 21.4032 8.43686 21.4032Z" fill="#11B360"/>
<path d="M17.8898 15.7324H14.1088C13.7549 15.7324 13.4688 15.4463 13.4688 15.0924C13.4688 14.7385 13.7549 14.4524 14.1088 14.4524H17.8898C18.2437 14.4524 18.5297 14.7385 18.5297 15.0924C18.5297 15.4463 18.2437 15.7324 17.8898 15.7324Z" fill="#11B360"/>
<path d="M11.2932 16.4813C11.0839 16.4813 10.8791 16.3789 10.7563 16.1907C10.0868 15.1642 8.95602 14.5505 7.72982 14.5505C7.37591 14.5505 7.08984 14.2644 7.08984 13.9105C7.08984 13.5566 7.37591 13.2705 7.72982 13.2705C9.39057 13.2705 10.922 14.1012 11.8289 15.4919C12.0221 15.7882 11.9383 16.1843 11.642 16.3776C11.5338 16.4474 11.4129 16.4813 11.2932 16.4813Z" fill="#11B360"/>
<path d="M8.43686 24.239C8.08295 24.239 7.79688 23.953 7.79688 23.599V20.7633C7.79688 20.4094 8.08295 20.1233 8.43686 20.1233C8.79077 20.1233 9.07683 20.4094 9.07683 20.7633V23.599C9.07683 23.953 8.79013 24.239 8.43686 24.239Z" fill="#11B360"/>
<path d="M15.999 15.7325C13.0903 15.7325 10.6328 13.2749 10.6328 10.3662C10.6328 7.45752 13.0903 5 15.999 5C18.9077 5 21.3653 7.45752 21.3653 10.3662C21.3653 13.2749 18.9077 15.7325 15.999 15.7325ZM15.999 6.27996C13.7841 6.27996 11.9127 8.15126 11.9127 10.3662C11.9127 12.5812 13.7841 14.4525 15.999 14.4525C18.214 14.4525 20.0853 12.5812 20.0853 10.3662C20.0853 8.15126 18.214 6.27996 15.999 6.27996Z" fill="#11B360"/>
<path d="M23.5609 21.4032C23.2069 21.4032 22.9209 21.1172 22.9209 20.7633C22.9209 17.9889 20.6643 15.7324 17.89 15.7324C17.5361 15.7324 17.25 15.4463 17.25 15.0924C17.25 14.7385 17.5361 14.4524 17.89 14.4524C21.3702 14.4524 24.2008 17.2837 24.2008 20.7633C24.2008 21.1172 23.9148 21.4032 23.5609 21.4032Z" fill="#11B360"/>
<path d="M23.5618 24.239C23.2079 24.239 22.9219 23.953 22.9219 23.599V20.7633C22.9219 20.4094 23.2079 20.1233 23.5618 20.1233C23.9158 20.1233 24.2018 20.4094 24.2018 20.7633V23.599C24.2018 23.953 23.9158 24.239 23.5618 24.239Z" fill="#11B360"/>
<path d="M15.9988 26.1334C13.298 26.1334 10.598 25.4768 8.13592 24.1642C7.82425 23.9971 7.70586 23.6099 7.87225 23.2976C8.03929 22.9866 8.42455 22.8682 8.73878 23.0339C13.2852 25.4588 18.7136 25.4588 23.2593 23.0339C23.5729 22.8682 23.9595 22.9866 24.1259 23.2976C24.2923 23.6093 24.1739 23.9971 23.8622 24.1642C21.3996 25.4761 18.6995 26.1334 15.9988 26.1334Z" fill="#11B360"/>
<path d="M6.3131 14.5505C4.04501 14.5505 2.12891 12.6344 2.12891 10.3663C2.12891 8.09823 4.04501 6.18213 6.3131 6.18213C8.58118 6.18213 10.4973 8.09823 10.4973 10.3663C10.4973 12.6344 8.58118 14.5505 6.3131 14.5505ZM6.3131 7.46209C4.73874 7.46209 3.40887 8.79197 3.40887 10.3663C3.40887 11.9406 4.73874 13.2705 6.3131 13.2705C7.88745 13.2705 9.21733 11.9406 9.21733 10.3663C9.21733 8.79197 7.88745 7.46209 6.3131 7.46209Z" fill="#11B360"/>
<path d="M0.63998 18.8043C0.286071 18.8043 0 18.5182 0 18.1643C0 15.4661 2.19577 13.271 4.89329 13.271C5.2472 13.271 5.53327 13.5571 5.53327 13.911C5.53327 14.2649 5.2472 14.551 4.89329 14.551C2.90103 14.5503 1.27996 16.1714 1.27996 18.1643C1.27996 18.5176 0.993889 18.8043 0.63998 18.8043Z" fill="#11B360"/>
<path d="M7.72965 14.5505H4.89389C4.53999 14.5505 4.25391 14.2644 4.25391 13.9105C4.25391 13.5566 4.53999 13.2705 4.89389 13.2705H7.72965C8.08356 13.2705 8.36963 13.5566 8.36963 13.9105C8.36963 14.2644 8.08356 14.5505 7.72965 14.5505Z" fill="#11B360"/>
<path d="M0.63998 20.931C0.286071 20.931 0 20.645 0 20.291V18.1644C0 17.8105 0.286071 17.5244 0.63998 17.5244C0.99389 17.5244 1.27996 17.8105 1.27996 18.1644V20.291C1.27996 20.645 0.99389 20.931 0.63998 20.931Z" fill="#11B360"/>
</g>
<defs>
<clipPath id="clip0_1_778">
<rect width="32" height="32" fill="white"/>
</clipPath>
</defs>
</svg>
