<svg width="32" height="32" viewBox="0 0 32 32" fill="none" xmlns="http://www.w3.org/2000/svg">
<g clip-path="url(#clip0_1_818)">
<mask id="mask0_1_818" style="mask-type:luminance" maskUnits="userSpaceOnUse" x="0" y="0" width="32" height="32">
<path d="M32 0H0V32H32V0Z" fill="white"/>
</mask>
<g mask="url(#mask0_1_818)">
<path d="M23.3347 31.9999C18.556 31.9999 14.668 28.1119 14.668 23.3332C14.668 18.5545 18.556 14.6665 23.3347 14.6665C28.1133 14.6665 32.0013 18.5545 32.0013 23.3332C32.0013 28.1119 28.1133 31.9999 23.3347 31.9999ZM23.3347 15.9999C19.2907 15.9999 16.0013 19.2905 16.0013 23.3332C16.0013 27.3759 19.2907 30.6665 23.3347 30.6665C27.3787 30.6665 30.668 27.3759 30.668 23.3332C30.668 19.2905 27.3787 15.9999 23.3347 15.9999Z" fill="#11B360"/>
<path d="M21.9978 26.6667C21.8218 26.6667 21.6511 26.596 21.5258 26.472L18.8591 23.8054C18.5991 23.5454 18.5991 23.1227 18.8591 22.8627C19.1191 22.6027 19.5418 22.6027 19.8018 22.8627L21.9644 25.0254L26.1618 20.228C26.4044 19.9494 26.8258 19.9227 27.1031 20.1654C27.3804 20.408 27.4084 20.828 27.1658 21.1054L22.4991 26.4387C22.3778 26.5774 22.2031 26.66 22.0191 26.6667C22.0125 26.6667 22.0044 26.6667 21.9978 26.6667Z" fill="#11B360"/>
<path d="M12.6667 28H3.33333C1.496 28 0 26.5053 0 24.6667V7.33333C0 5.49467 1.496 4 3.33333 4H6C6.368 4 6.66667 4.29867 6.66667 4.66667C6.66667 5.03467 6.368 5.33333 6 5.33333H3.33333C2.23067 5.33333 1.33333 6.23067 1.33333 7.33333V24.6667C1.33333 25.7693 2.23067 26.6667 3.33333 26.6667H12.6667C13.0347 26.6667 13.3333 26.9653 13.3333 27.3333C13.3333 27.7013 13.0347 28 12.6667 28Z" fill="#11B360"/>
<path d="M22 12C21.632 12 21.3333 11.7013 21.3333 11.3333V7.33333C21.3333 6.23067 20.436 5.33333 19.3333 5.33333H16.6667C16.2987 5.33333 16 5.03467 16 4.66667C16 4.29867 16.2987 4 16.6667 4H19.3333C21.1707 4 22.6667 5.49467 22.6667 7.33333V11.3333C22.6667 11.7013 22.368 12 22 12Z" fill="#11B360"/>
<path d="M15.332 8H7.33203C6.22936 8 5.33203 7.10267 5.33203 6V3.33333C5.33203 2.96533 5.63069 2.66667 5.99869 2.66667H8.06536C8.37603 1.14667 9.72136 0 11.332 0C12.9427 0 14.288 1.14667 14.5987 2.66667H16.6653C17.0333 2.66667 17.332 2.96533 17.332 3.33333V6C17.332 7.10267 16.4347 8 15.332 8ZM6.66536 4V6C6.66536 6.36667 6.96403 6.66667 7.33203 6.66667H15.332C15.7 6.66667 15.9987 6.36667 15.9987 6V4H13.9987C13.6307 4 13.332 3.70133 13.332 3.33333C13.332 2.23067 12.4347 1.33333 11.332 1.33333C10.2293 1.33333 9.33203 2.23067 9.33203 3.33333C9.33203 3.70133 9.03336 4 8.66536 4H6.66536Z" fill="#11B360"/>
<path d="M18 11.9999H4.66667C4.29867 11.9999 4 11.7012 4 11.3332C4 10.9652 4.29867 10.6665 4.66667 10.6665H18C18.368 10.6665 18.6667 10.9652 18.6667 11.3332C18.6667 11.7012 18.368 11.9999 18 11.9999Z" fill="#11B360"/>
<path d="M14 15.9999H4.66667C4.29867 15.9999 4 15.7012 4 15.3332C4 14.9652 4.29867 14.6665 4.66667 14.6665H14C14.368 14.6665 14.6667 14.9652 14.6667 15.3332C14.6667 15.7012 14.368 15.9999 14 15.9999Z" fill="#11B360"/>
<path d="M11.3333 19.9999H4.66667C4.29867 19.9999 4 19.7012 4 19.3332C4 18.9652 4.29867 18.6665 4.66667 18.6665H11.3333C11.7013 18.6665 12 18.9652 12 19.3332C12 19.7012 11.7013 19.9999 11.3333 19.9999Z" fill="#11B360"/>
</g>
</g>
<defs>
<clipPath id="clip0_1_818">
<rect width="32" height="32" fill="white"/>
</clipPath>
</defs>
</svg>
