<svg width="32" height="32" viewBox="0 0 32 32" fill="none" xmlns="http://www.w3.org/2000/svg">
<path d="M19.6394 16.8457L21.6278 17.5107C22.2982 17.7857 23.0601 17.4256 23.2731 16.733C23.4372 16.1993 23.2219 15.6218 22.7483 15.3259L19.7578 13.6703L17.8906 10.7891" stroke="#11B360" stroke-miterlimit="10" stroke-linecap="round" stroke-linejoin="round"/>
<path d="M15.739 7.9841C17.3898 7.9841 18.728 6.64588 18.728 4.9951C18.728 3.34432 17.3898 2.0061 15.739 2.0061C14.0882 2.0061 12.75 3.34432 12.75 4.9951C12.75 6.64588 14.0882 7.9841 15.739 7.9841Z" stroke="#11B360" stroke-miterlimit="10" stroke-linecap="round" stroke-linejoin="round"/>
<path d="M12.3062 20.2725L12.0942 22.7849L8.48186 27.8751C8.03472 28.4026 8.08288 29.1888 8.591 29.6578C9.08758 30.1162 9.85363 30.114 10.3474 29.6526L13.9814 25.4824C14.4465 24.9489 14.7999 24.3275 15.021 23.6552L15.7385 21.3799" stroke="#11B360" stroke-miterlimit="10" stroke-linecap="round" stroke-linejoin="round"/>
<path d="M14.7866 9H15.2994C16.8302 9 18.0711 10.2409 18.0711 11.7717V16.7118C18.0711 17.34 18.3206 17.9425 18.7649 18.3867L20.678 20.2999C21.3618 20.9837 21.8382 21.8469 22.0522 22.79L23.3356 28.4456C23.4601 29.2634 22.8271 30 22 30C21.392 30 20.8588 29.5938 20.6974 29.0076L18.7283 23.61L13.7841 19.5616C12.9928 18.9136 12.551 17.9322 12.5906 16.9103L12.7377 13.1155L10.9739 14.5433L10.385 17.5173C10.2466 18.2162 9.56602 18.669 8.86798 18.5266C8.19434 18.3892 7.74827 17.7458 7.85583 17.0668L8.39599 13.6568C8.51867 12.8824 8.94032 12.187 9.5703 11.7203L12.0004 9.91973C12.8065 9.32243 13.7832 9 14.7866 9Z" stroke="#11B360" stroke-miterlimit="10" stroke-linecap="round" stroke-linejoin="round"/>
</svg>
